<svg viewBox="0 0 48 48" xmlns="http://www.w3.org/2000/svg"><g fill="none" fill-rule="evenodd"><path d="M5.377 18.834c.254.776.689 1.49 1.299 2.13.637.673 1.474 1.195 2.514 1.569 1.035.372 2.369.564 4.015.564h2.233c-.268 2.743-1.247 5.08-2.936 7.012-1.689 1.928-4.033 3.621-7.027 5.075L7.289 38a27.298 27.298 0 0 0 10.117-7.38c2.803-3.247 4.196-6.464 4.196-9.655 0-3.428-.807-6.116-2.438-8.058-1.631-1.942-3.965-2.905-7.006-2.905-1.924 0-3.601.64-5.023 1.925C5.711 13.212 5 14.715 5 16.43c0 .823.127 1.628.377 2.404m20.398 0c.252.776.69 1.49 1.297 2.13.639.673 1.477 1.195 2.512 1.569 1.039.372 2.373.564 4.018.564h2.23c-.266 2.743-1.244 5.08-2.934 7.012-1.691 1.928-4.031 3.621-7.027 5.075L27.688 38a27.322 27.322 0 0 0 10.117-7.38C40.606 27.373 42 24.156 42 20.965c0-3.428-.809-6.116-2.439-8.058-1.629-1.942-3.963-2.905-7.004-2.905-1.928 0-3.602.64-5.024 1.925-1.424 1.285-2.135 2.788-2.135 4.503 0 .823.124 1.628.377 2.404" fill="#d6ca8b" class="fill-000000"></path></g></svg>