<svg viewBox="0 0 512 512" xml:space="preserve" xmlns="http://www.w3.org/2000/svg" enable-background="new 0 0 512 512"><path d="M352.1 502.3v-88.9l75.3-89.5H269.6l75.3 89.5v88.9c-20 .2-35.7 1.6-35.7 3.4 0 .1 0 .2.1.3h78.4c.1-.1.1-.2.1-.3-.1-1.7-15.7-3.2-35.7-3.4zm-46.3-156.2 46.8 55.7-4.2 5-63.7-75.8h127.5l-12.7 15.2h-93.7z" fill="#dbb774" class="fill-000000"></path><path d="M173.8 102.4V38.5c6.2-2.5 10.6-8.5 10.6-15.7 0-9.3-7.5-16.8-16.8-16.8h-24.5c-9.3 0-16.8 7.5-16.8 16.8 0 7.1 4.4 13.2 10.6 15.7v63.9c-30.1 8.1-52.3 35.6-52.3 68.3v319.1c0 9 7.3 16.3 16.3 16.3h108.9c9 0 16.3-7.3 16.3-16.3V170.6c0-32.6-22.2-60.1-52.3-68.2zm28.9 347c0 8.6-6.9 15.5-15.5 15.5h-63.7c-8.6 0-15.5-6.9-15.5-15.5v-13.5c0-8.6 6.9-15.5 15.5-15.5h63.7c8.6 0 15.5 6.9 15.5 15.5v13.5zm0-80.9c0 8.6-6.9 15.5-15.5 15.5h-63.7c-8.6 0-15.5-6.9-15.5-15.5V212.4c0-8.6 6.9-15.5 15.5-15.5h63.7c8.6 0 15.5 6.9 15.5 15.5v156.1z" fill-rule="evenodd" clip-rule="evenodd" fill="#dbb774" class="fill-000000"></path></svg>